<svg width="20" height="20" viewBox="0 0 20 20" fill="none" xmlns="http://www.w3.org/2000/svg">
<rect width="20" height="20" rx="10" fill="black"/>
<path fill-rule="evenodd" clip-rule="evenodd" d="M10 14.8C11.273 14.8 12.4939 14.2943 13.3941 13.3941C14.2943 12.4939 14.8 11.273 14.8 10C14.8 8.72696 14.2943 7.50606 13.3941 6.60589C12.4939 5.70571 11.273 5.2 10 5.2C8.72696 5.2 7.50606 5.70571 6.60589 6.60589C5.70571 7.50606 5.2 8.72696 5.2 10C5.2 11.273 5.70571 12.4939 6.60589 13.3941C7.50606 14.2943 8.72696 14.8 10 14.8ZM10 16C13.3138 16 16 13.3138 16 10C16 6.6862 13.3138 4 10 4C6.6862 4 4 6.6862 4 10C4 13.3138 6.6862 16 10 16Z" fill="white"/>
<path fill-rule="evenodd" clip-rule="evenodd" d="M11.0443 13.7062C11.4871 12.8194 11.7961 11.5108 11.7961 10C11.7961 8.4892 11.4871 7.18 11.0443 6.2938C10.5649 5.3356 10.1251 5.2 9.99609 5.2C9.86709 5.2 9.42729 5.3356 8.94789 6.2938C8.50509 7.1806 8.19609 8.4892 8.19609 10C8.19609 11.5108 8.50509 12.82 8.94789 13.7062C9.42729 14.6644 9.86709 14.8 9.99609 14.8C10.1251 14.8 10.5649 14.6644 11.0443 13.7062ZM9.99609 16C11.6527 16 12.9961 13.3138 12.9961 10C12.9961 6.6862 11.6527 4 9.99609 4C8.33949 4 6.99609 6.6862 6.99609 10C6.99609 13.3138 8.33949 16 9.99609 16Z" fill="white"/>
<path fill-rule="evenodd" clip-rule="evenodd" d="M15.9697 10.5994C16.0094 10.2004 16.0094 9.79843 15.9697 9.39941H4.02972C3.99009 9.79843 3.99009 10.2004 4.02972 10.5994H15.9697Z" fill="white"/>
</svg>
