<svg width="20" height="20" viewBox="0 0 20 20" fill="none" xmlns="http://www.w3.org/2000/svg">
<rect width="20" height="20" rx="10" fill="black"/>
<g clip-path="url(#clip0_4709_14)">
<path fill-rule="evenodd" clip-rule="evenodd" d="M4.25659 13.0276C4.25659 13.0276 3.80995 11.5223 4.51885 10.8294C5.06721 10.2934 5.95747 10.2936 6.50567 10.8294C7.05388 11.3652 7.05404 12.2353 6.50567 12.7713C5.79677 13.4641 4.25659 13.0276 4.25659 13.0276Z" fill="white"/>
<path fill-rule="evenodd" clip-rule="evenodd" d="M6.50886 8.6249C6.00569 7.77519 6.82515 6.43908 6.82515 6.43908C6.82515 6.43908 8.42181 6.41496 8.92498 7.26467L11.2197 11.1397C11.6093 11.7977 11.3839 12.636 10.7171 13.0114C10.0503 13.3868 9.19322 13.158 8.80356 12.4999L6.50886 8.6249Z" fill="white"/>
<path fill-rule="evenodd" clip-rule="evenodd" d="M10.9698 8.62539C10.4666 7.77568 11.2861 6.43957 11.2861 6.43957C11.2861 6.43957 12.8827 6.41545 13.3859 7.26515L15.6806 11.1402C16.0703 11.7982 15.8449 12.6365 15.1781 13.0119C14.5113 13.3873 13.6542 13.1584 13.2645 12.5004L10.9698 8.62539Z" fill="white"/>
</g>
<defs>
<clipPath id="clip0_4709_14">
<rect width="12" height="7.38462" fill="white" transform="translate(4 6.30762)"/>
</clipPath>
</defs>
</svg>
